<svg width="16" height="16" viewBox="0 0 16 16" fill="none" xmlns="http://www.w3.org/2000/svg">
<path d="M14.8085 1.2549H12.5957V0.470588C12.5957 0.34578 12.5419 0.226084 12.4462 0.137832C12.3504 0.0495796 12.2205 0 12.0851 0C11.9497 0 11.8198 0.0495796 11.724 0.137832C11.6283 0.226084 11.5745 0.34578 11.5745 0.470588V1.2549H4.42553V0.470588C4.42553 0.34578 4.37173 0.226084 4.27597 0.137832C4.18021 0.0495796 4.05032 0 3.91489 0C3.77946 0 3.64958 0.0495796 3.55382 0.137832C3.45805 0.226084 3.40426 0.34578 3.40426 0.470588V1.2549H1.19149C0.875487 1.2549 0.572427 1.37059 0.348979 1.57651C0.125532 1.78243 0 2.06172 0 2.35294V14.902C0 15.1932 0.125532 15.4725 0.348979 15.6784C0.572427 15.8843 0.875487 16 1.19149 16H14.8085C15.1245 16 15.4276 15.8843 15.651 15.6784C15.8745 15.4725 16 15.1932 16 14.902V2.35294C16 2.06172 15.8745 1.78243 15.651 1.57651C15.4276 1.37059 15.1245 1.2549 14.8085 1.2549ZM1.19149 2.19608H3.40426V2.98039C3.40426 3.1052 3.45805 3.2249 3.55382 3.31315C3.64958 3.4014 3.77946 3.45098 3.91489 3.45098C4.05032 3.45098 4.18021 3.4014 4.27597 3.31315C4.37173 3.2249 4.42553 3.1052 4.42553 2.98039V2.19608H11.5745V2.98039C11.5745 3.1052 11.6283 3.2249 11.724 3.31315C11.8198 3.4014 11.9497 3.45098 12.0851 3.45098C12.2205 3.45098 12.3504 3.4014 12.4462 3.31315C12.5419 3.2249 12.5957 3.1052 12.5957 2.98039V2.19608H14.8085C14.8537 2.19608 14.8969 2.2126 14.9289 2.24202C14.9608 2.27144 14.9787 2.31134 14.9787 2.35294V5.01961H1.02128V2.35294C1.02128 2.31134 1.03921 2.27144 1.07113 2.24202C1.10305 2.2126 1.14635 2.19608 1.19149 2.19608ZM14.8085 15.0588H1.19149C1.14635 15.0588 1.10305 15.0423 1.07113 15.0129C1.03921 14.9835 1.02128 14.9436 1.02128 14.902V5.96078H14.9787V14.902C14.9787 14.9436 14.9608 14.9835 14.9289 15.0129C14.8969 15.0423 14.8537 15.0588 14.8085 15.0588ZM6.46808 8V13.0196C6.46808 13.1444 6.41429 13.2641 6.31852 13.3524C6.22276 13.4406 6.09288 13.4902 5.95745 13.4902C5.82202 13.4902 5.69213 13.4406 5.59637 13.3524C5.50061 13.2641 5.44681 13.1444 5.44681 13.0196V8.76157L4.82383 9.04863C4.76381 9.07623 4.69848 9.09267 4.63157 9.09701C4.56466 9.10134 4.49748 9.09349 4.43386 9.0739C4.37024 9.05431 4.31144 9.02336 4.2608 8.98282C4.21016 8.94229 4.16868 8.89296 4.13872 8.83765C4.10877 8.78234 4.09093 8.72213 4.08623 8.66047C4.08152 8.59881 4.09004 8.53689 4.1113 8.47827C4.13256 8.41964 4.16614 8.36544 4.21013 8.31877C4.25411 8.27211 4.30764 8.23388 4.36766 8.20627L5.72936 7.57882C5.80723 7.543 5.89373 7.52611 5.98067 7.52976C6.06761 7.53341 6.15209 7.55747 6.2261 7.59967C6.30011 7.64186 6.36119 7.70079 6.40354 7.77085C6.44589 7.84092 6.46811 7.9198 6.46808 8ZM11.5379 10.2941L9.70213 12.549H11.4043C11.5397 12.549 11.6696 12.5986 11.7653 12.6869C11.8611 12.7751 11.9149 12.8948 11.9149 13.0196C11.9149 13.1444 11.8611 13.2641 11.7653 13.3524C11.6696 13.4406 11.5397 13.4902 11.4043 13.4902H8.68085C8.58602 13.4902 8.49306 13.4659 8.41239 13.4199C8.33172 13.374 8.26653 13.3082 8.22412 13.2301C8.18171 13.1519 8.16376 13.0644 8.17228 12.9773C8.18079 12.8903 8.21544 12.8072 8.27234 12.7373L10.7234 9.72549C10.794 9.64003 10.8448 9.54211 10.8726 9.43782C10.9004 9.33352 10.9047 9.22507 10.8852 9.11919C10.8657 9.0133 10.8228 8.91224 10.7592 8.82226C10.6955 8.73228 10.6125 8.6553 10.5153 8.5961C10.4181 8.5369 10.3087 8.49673 10.1939 8.47809C10.0791 8.45944 9.96141 8.46272 9.84807 8.48772C9.73473 8.51272 9.62816 8.55891 9.53499 8.62342C9.44181 8.68793 9.364 8.76939 9.30638 8.86275C9.27593 8.92126 9.23267 8.97333 9.17933 9.0157C9.12599 9.05806 9.06372 9.08981 8.99643 9.10893C8.92914 9.12805 8.85829 9.13414 8.78832 9.12681C8.71835 9.11949 8.65078 9.0989 8.58986 9.06636C8.52894 9.03381 8.47599 8.99 8.43432 8.93769C8.39265 8.88538 8.36317 8.82569 8.34774 8.76237C8.33231 8.69905 8.33125 8.63348 8.34464 8.56977C8.35803 8.50606 8.38557 8.44559 8.42553 8.39216C8.55386 8.18912 8.72584 8.01238 8.93092 7.87277C9.13599 7.73316 9.36985 7.63362 9.61815 7.58025C9.86646 7.52688 10.124 7.52081 10.3749 7.56241C10.6258 7.60401 10.8649 7.69241 11.0775 7.82217C11.29 7.95194 11.4716 8.12035 11.611 8.31707C11.7504 8.5138 11.8448 8.73469 11.8883 8.96622C11.9318 9.19774 11.9235 9.43501 11.864 9.66348C11.8045 9.89196 11.695 10.1068 11.5421 10.2949L11.5379 10.2941Z" fill="#9A9A9A"/>
</svg>
