<svg width="16" height="22" viewBox="0 0 16 22" fill="none" xmlns="http://www.w3.org/2000/svg">
<path d="M8 21.1819L1.86473 13.9462C1.77948 13.8376 1.69511 13.7282 1.61164 13.6182C0.564156 12.2374 -0.00194504 10.5514 5.02122e-06 8.81823C5.02122e-06 6.6965 0.84286 4.66167 2.34315 3.16138C3.84344 1.66109 5.87827 0.818237 8 0.818237C10.1217 0.818237 12.1566 1.66109 13.6569 3.16138C15.1571 4.66167 16 6.6965 16 8.81823C16.0017 10.5506 15.4359 12.2358 14.3891 13.616L14.3884 13.6182C14.3884 13.6182 14.1702 13.9048 14.1375 13.9433L8 21.1819ZM2.77309 12.7419C2.77309 12.7419 2.94255 12.9659 2.98109 13.0139L8 18.9331L13.0255 13.0059C13.0575 12.9659 13.2276 12.7404 13.2284 12.7397C14.0845 11.6118 14.5472 10.2343 14.5455 8.81823C14.5455 7.08227 13.8558 5.41741 12.6283 4.1899C11.4008 2.96239 9.73596 2.27278 8 2.27278C6.26404 2.27278 4.59918 2.96239 3.37167 4.1899C2.14416 5.41741 1.45455 7.08227 1.45455 8.81823C1.45276 10.2352 1.91596 11.6136 2.77309 12.7419Z" fill="#9A9A9A"/>
<path d="M7.99964 12.4549C7.28044 12.4549 6.57739 12.2416 5.97939 11.842C5.38139 11.4424 4.91531 10.8745 4.64008 10.2101C4.36486 9.54561 4.29284 8.81446 4.43315 8.10907C4.57346 7.40369 4.91979 6.75575 5.42835 6.2472C5.9369 5.73864 6.58484 5.39231 7.29023 5.252C7.99561 5.11169 8.72676 5.1837 9.39122 5.45893C10.0557 5.73416 10.6236 6.20024 11.0232 6.79824C11.4227 7.39623 11.636 8.09929 11.636 8.81849C11.6349 9.78256 11.2514 10.7068 10.5697 11.3885C9.88797 12.0702 8.96371 12.4537 7.99964 12.4549ZM7.99964 6.63668C7.56812 6.63668 7.14629 6.76464 6.78749 7.00438C6.42869 7.24412 6.14905 7.58487 5.98391 7.98355C5.81877 8.38222 5.77556 8.82091 5.85975 9.24414C5.94394 9.66738 6.15173 10.0561 6.45687 10.3613C6.762 10.6664 7.15076 10.8742 7.57399 10.9584C7.99722 11.0426 8.43592 10.9994 8.83459 10.8342C9.23326 10.6691 9.57402 10.3894 9.81376 10.0306C10.0535 9.67185 10.1815 9.25002 10.1815 8.81849C10.1809 8.24002 9.95083 7.6854 9.54178 7.27635C9.13274 6.86731 8.57812 6.63725 7.99964 6.63668Z" fill="#9A9A9A"/>
</svg>
